<svg width="18" height="20" fill="none" xmlns="http://www.w3.org/2000/svg"><path d="M2.45781 18.1422c.06095.6704.60948 1.158 1.27991 1.158H14.2614c.6704 0 1.219-.5079 1.2799-1.158l1.1784-12.35216H1.27948L2.45781 18.1422zM16.7201 1.93002h-5.14v-.65011C11.5801.568849 11.0113 0 10.3002 0H7.72009c-.71106 0-1.27991.568849-1.27991 1.27991v.65011H1.27991C.568849 1.93002 0 2.49887 0 3.20993c0 .71106.568849 1.27991 1.27991 1.27991H16.7201c.7111 0 1.2799-.56885 1.2799-1.27991 0-.71106-.5688-1.27991-1.2799-1.27991z" fill="#fff"/></svg>