<svg width="21" height="19" fill="none" xmlns="http://www.w3.org/2000/svg"><path d="M19.154 9.33822c2.14-2.13989 2.14-5.61458 0-7.7333-2.14-2.139895-5.6148-2.139895-7.7548 0L10.361 2.66428 9.32276 1.62611C7.18277-.534975 3.70792-.534975 1.58911 1.60492.550891 2.64309 0 4.02026 0 5.48217s.572079 2.83907 1.58911 3.87724L10.361 18.1309l8.793-8.79268zM1.35604 5.48217c0-1.10173.42376-2.11871 1.20772-2.88145.80515-.80511 1.84336-1.20767 2.88158-1.20767s2.07644.40256 2.88158 1.20767L10.361 4.6135l2.034-2.03397c1.5891-1.589032 4.1953-1.589032 5.7632 0 .7628.76274 1.2077 1.77972 1.2077 2.88145s-.4237 2.11871-1.2077 2.88145L10.361 16.1605 2.56376 8.36362c-.76277-.78393-1.20772-1.80091-1.20772-2.88145z" fill="#000"/></svg>